<svg width="18" height="20" viewBox="0 0 18 20" fill="none" xmlns="http://www.w3.org/2000/svg">
<path d="M0 0.992C0 0.444 0.445 0 0.993 0H17.007C17.2696 0.00183004 17.521 0.1069 17.7068 0.292513C17.8926 0.478126 17.9979 0.72938 18 0.992V19.008C17.9997 19.2712 17.895 19.5235 17.7088 19.7095C17.5226 19.8955 17.2702 20 17.007 20H0.993C0.730378 19.9982 0.479017 19.8931 0.293218 19.7075C0.107418 19.5219 0.00209465 19.2706 0 19.008V0.992ZM16 9V2H2V9H16ZM16 11H2V18H16V11ZM6 4H12V6H6V4ZM6 13H12V15H6V13Z" fill="#fff"/>
</svg>
