<svg width="14" height="8" viewBox="0 0 14 8" fill="none" xmlns="http://www.w3.org/2000/svg">
<path fill-rule="evenodd" clip-rule="evenodd" d="M7.70698 7.7071C7.51945 7.89457 7.26514 7.99989 6.99998 7.99989C6.73481 7.99989 6.4805 7.89457 6.29298 7.7071L0.635977 2.0501C0.540467 1.95785 0.464284 1.84751 0.411875 1.7255C0.359466 1.6035 0.33188 1.47228 0.330726 1.3395C0.329572 1.20672 0.354874 1.07504 0.405155 0.952145C0.455436 0.829249 0.529689 0.717596 0.623582 0.623704C0.717475 0.529811 0.829126 0.455558 0.952023 0.405277C1.07492 0.354996 1.2066 0.329694 1.33938 0.330848C1.47216 0.332002 1.60338 0.359588 1.72538 0.411997C1.84739 0.464406 1.95773 0.540588 2.04998 0.636098L6.99998 5.5861L11.95 0.636098C12.1386 0.45394 12.3912 0.353146 12.6534 0.355424C12.9156 0.357703 13.1664 0.462872 13.3518 0.64828C13.5372 0.833688 13.6424 1.0845 13.6447 1.3467C13.6469 1.60889 13.5461 1.8615 13.364 2.0501L7.70698 7.7071Z" fill="#E0E0E0"/>
</svg>
