<svg width="16" height="20" viewBox="0 0 16 20" fill="none" xmlns="http://www.w3.org/2000/svg">
<path d="M11 16.4309L14.2448 12.9833C14.4096 12.8145 14.634 12.7172 14.8698 12.7123C15.1056 12.7073 15.3339 12.7951 15.5056 12.9567C15.6773 13.1184 15.7787 13.341 15.788 13.5767C15.7973 13.8123 15.7137 14.0422 15.5552 14.2169L10.7552 19.3169C10.671 19.4062 10.5695 19.4774 10.4568 19.5261C10.3442 19.5747 10.2227 19.5999 10.1 19.5999C9.97725 19.5999 9.85581 19.5747 9.74314 19.5261C9.63046 19.4774 9.52893 19.4062 9.44479 19.3169L4.64479 14.2169C4.56125 14.1313 4.49559 14.03 4.45166 13.9188C4.40773 13.8076 4.38639 13.6887 4.38891 13.5692C4.39142 13.4496 4.41774 13.3318 4.46631 13.2225C4.51488 13.1132 4.58474 13.0147 4.67181 12.9328C4.75887 12.8508 4.8614 12.787 4.97339 12.7451C5.08539 12.7032 5.20461 12.6841 5.32409 12.6888C5.44357 12.6935 5.56092 12.722 5.66928 12.7725C5.77764 12.8231 5.87483 12.8947 5.95519 12.9833L9.19999 16.4309L9.19999 4.30007C9.19999 3.74312 8.97874 3.20897 8.58491 2.81515C8.19109 2.42132 7.65694 2.20007 7.09999 2.20007L1.69999 2.20007C1.46129 2.20007 1.23237 2.10525 1.06359 1.93647C0.894808 1.76769 0.799987 1.53877 0.799987 1.30007C0.799987 1.06138 0.894808 0.832458 1.06359 0.663676C1.23237 0.494893 1.46129 0.400072 1.69999 0.400072L7.09999 0.400072C8.13433 0.400072 9.12631 0.810963 9.8577 1.54235C10.5891 2.27375 11 3.26573 11 4.30007L11 16.4309Z" fill="white"/>
</svg>
