<svg width="18" height="24" viewBox="0 0 18 24" fill="none" xmlns="http://www.w3.org/2000/svg">
<path d="M17.1562 8.90625C17.1562 4.40906 13.4972 0.75 9 0.75C4.50281 0.75 0.84375 4.40906 0.84375 8.90625C0.84375 13.0542 3.95625 16.4892 7.96875 16.9973V18.4688H6.28125C6.00775 18.4688 5.74544 18.5774 5.55205 18.7708C5.35865 18.9642 5.25 19.2265 5.25 19.5C5.25 19.7735 5.35865 20.0358 5.55205 20.2292C5.74544 20.4226 6.00775 20.5312 6.28125 20.5312H7.96875V22.2188C7.96875 22.4923 8.0774 22.7546 8.2708 22.948C8.46419 23.1414 8.7265 23.25 9 23.25C9.2735 23.25 9.53581 23.1414 9.7292 22.948C9.9226 22.7546 10.0312 22.4923 10.0312 22.2188V20.5312H11.7188C11.9923 20.5312 12.2546 20.4226 12.448 20.2292C12.6414 20.0358 12.75 19.7735 12.75 19.5C12.75 19.2265 12.6414 18.9642 12.448 18.7708C12.2546 18.5774 11.9923 18.4688 11.7188 18.4688H10.0312V16.9973C14.0437 16.4892 17.1562 13.0542 17.1562 8.90625ZM2.90625 8.90625C2.90625 5.54625 5.64 2.8125 9 2.8125C12.36 2.8125 15.0938 5.54625 15.0938 8.90625C15.0938 12.2663 12.36 15 9 15C5.64 15 2.90625 12.2663 2.90625 8.90625Z" fill="black"/>
</svg>
