<svg width="20" height="18" viewBox="0 0 20 18" fill="none" xmlns="http://www.w3.org/2000/svg">
<path d="M17.071 10.142L11.414 15.8C11.0389 16.175 10.5303 16.3856 9.99996 16.3856C9.46963 16.3856 8.96101 16.175 8.58596 15.8L2.92896 10.143C2.46133 9.67947 2.08986 9.12812 1.83589 8.52062C1.58191 7.91312 1.45043 7.26144 1.44899 6.60299C1.44754 5.94454 1.57617 5.29229 1.82748 4.68368C2.0788 4.07508 2.44785 3.5221 2.91344 3.05651C3.37904 2.59091 3.93201 2.22186 4.54062 1.97055C5.14922 1.71924 5.80147 1.59061 6.45992 1.59205C7.11837 1.59349 7.77006 1.72498 8.37755 1.97895C8.98505 2.23293 9.53641 2.60439 9.99996 3.07202C10.9415 2.1539 12.2069 1.64369 13.522 1.65193C14.8371 1.66017 16.096 2.18619 17.0259 3.11605C17.9559 4.0459 18.4821 5.30472 18.4906 6.6198C18.499 7.93488 17.989 9.20033 17.071 10.142Z" stroke="white" stroke-width="2.5" stroke-linecap="round" stroke-linejoin="round"/>
</svg>
