<svg width="20" height="20" viewBox="0 0 20 20" fill="none" xmlns="http://www.w3.org/2000/svg">
<path d="M18.7187 0.25H14.5C14.2265 0.25 13.9642 0.358649 13.7708 0.552046C13.5774 0.745443 13.4687 1.00775 13.4687 1.28125C13.4687 1.55475 13.5774 1.81706 13.7708 2.01045C13.9642 2.20385 14.2265 2.3125 14.5 2.3125H16.2292L13.3984 5.14328C10.202 2.66547 5.5703 2.89328 2.63873 5.82625C-0.541267 9.00672 -0.541267 14.1808 2.64061 17.3594C4.17134 18.8855 6.2447 19.7425 8.40623 19.7425C10.5678 19.7425 12.6411 18.8855 14.1719 17.3594C17.1048 14.4259 17.3326 9.79609 14.8548 6.59969L17.6875 3.77078V5.5C17.6875 5.7735 17.7961 6.03581 17.9895 6.2292C18.1829 6.4226 18.4452 6.53125 18.7187 6.53125C18.9922 6.53125 19.2545 6.4226 19.4479 6.2292C19.6413 6.03581 19.75 5.7735 19.75 5.5V1.28125C19.75 1.14582 19.7233 1.01172 19.6715 0.886608C19.6197 0.761491 19.5437 0.647806 19.4479 0.552046C19.3522 0.456286 19.2385 0.380324 19.1134 0.328499C18.9883 0.276674 18.8542 0.25 18.7187 0.25ZM12.715 15.9025C11.5714 17.0437 10.0218 17.6846 8.40623 17.6846C6.79065 17.6846 5.24106 17.0437 4.09748 15.9025C1.72139 13.5269 1.72139 9.66063 4.09748 7.285C6.47358 4.90938 10.3394 4.90891 12.715 7.285C15.0906 9.66109 15.0911 13.5269 12.715 15.9025Z" fill="#1068BA"/>
</svg>
