<svg width="20" height="10" viewBox="0 0 20 10" fill="none" xmlns="http://www.w3.org/2000/svg">
<path fill-rule="evenodd" clip-rule="evenodd" d="M0.400024 5.00003C0.400024 4.76134 0.494845 4.53242 0.663628 4.36364C0.832411 4.19485 1.06133 4.10003 1.30002 4.10003H16.408L13.888 1.76003C13.8014 1.67966 13.7314 1.58301 13.682 1.47559C13.6327 1.36817 13.605 1.25209 13.6006 1.13397C13.5961 1.01586 13.615 0.898019 13.6561 0.787188C13.6971 0.676357 13.7597 0.574703 13.84 0.488031C14.0023 0.312988 14.2275 0.209593 14.4661 0.200591C14.5842 0.196134 14.702 0.214985 14.8129 0.256068C14.9237 0.297151 15.0254 0.359662 15.112 0.440031L19.312 4.34003C19.4029 4.42428 19.4754 4.52639 19.525 4.63996C19.5746 4.75353 19.6001 4.87611 19.6001 5.00003C19.6001 5.12395 19.5746 5.24654 19.525 5.36011C19.4754 5.47367 19.4029 5.57578 19.312 5.66003L15.112 9.56003C14.937 9.72234 14.7046 9.80847 14.4661 9.79947C14.2275 9.79047 14.0023 9.68707 13.84 9.51203C13.6777 9.33699 13.5916 9.10464 13.6006 8.86609C13.6096 8.62754 13.713 8.40234 13.888 8.24003L16.408 5.90003H1.30002C1.06133 5.90003 0.832411 5.80521 0.663628 5.63643C0.494845 5.46764 0.400024 5.23873 0.400024 5.00003Z" fill="black"/>
</svg>
