<svg width="22" height="12" viewBox="0 0 22 12" fill="none" xmlns="http://www.w3.org/2000/svg">
<path d="M20 0H2C0.9 0 0 0.9 0 2V10C0 11.1 0.9 12 2 12H20C21.1 12 22 11.1 22 10V2C22 0.9 21.1 0 20 0ZM19 10H3C2.45 10 2 9.55 2 9V3C2 2.45 2.45 2 3 2H4V5C4 5.55 4.45 6 5 6C5.55 6 6 5.55 6 5V2H8V5C8 5.55 8.45 6 9 6C9.55 6 10 5.55 10 5V2H12V5C12 5.55 12.45 6 13 6C13.55 6 14 5.55 14 5V2H16V5C16 5.55 16.45 6 17 6C17.55 6 18 5.55 18 5V2H19C19.55 2 20 2.45 20 3V9C20 9.55 19.55 10 19 10Z" fill="black"/>
</svg>
