<svg width="28" height="28" viewBox="0 0 28 28" fill="none" xmlns="http://www.w3.org/2000/svg">
<path d="M26.9467 25.0533L22 20.1467C23.9201 17.7525 24.85 14.7137 24.5984 11.6551C24.3468 8.5964 22.9329 5.75037 20.6474 3.70219C18.3618 1.654 15.3784 0.559341 12.3106 0.643289C9.24271 0.727236 6.32362 1.98341 4.15352 4.15352C1.98341 6.32362 0.727236 9.24271 0.643289 12.3106C0.559341 15.3784 1.654 18.3618 3.70219 20.6474C5.75037 22.9329 8.5964 24.3468 11.6551 24.5984C14.7137 24.85 17.7525 23.9201 20.1467 22L25.0533 26.9067C25.1773 27.0316 25.3247 27.1308 25.4872 27.1985C25.6497 27.2662 25.824 27.3011 26 27.3011C26.176 27.3011 26.3503 27.2662 26.5128 27.1985C26.6752 27.1308 26.8227 27.0316 26.9467 26.9067C27.187 26.658 27.3213 26.3258 27.3213 25.98C27.3213 25.6342 27.187 25.302 26.9467 25.0533ZM12.6667 22C10.8207 22 9.0162 21.4526 7.48134 20.427C5.94648 19.4015 4.7502 17.9438 4.04379 16.2384C3.33737 14.5329 3.15254 12.6563 3.51266 10.8458C3.87279 9.03533 4.76171 7.37229 6.067 6.067C7.37229 4.76171 9.03533 3.87279 10.8458 3.51266C12.6563 3.15254 14.5329 3.33737 16.2384 4.04379C17.9438 4.7502 19.4015 5.94648 20.427 7.48134C21.4526 9.0162 22 10.8207 22 12.6667C22 15.142 21.0167 17.516 19.2663 19.2663C17.516 21.0167 15.142 22 12.6667 22Z" fill="#666666"/>
</svg>
