<svg width="18" height="18" viewBox="0 0 18 18" fill="none" xmlns="http://www.w3.org/2000/svg">
<path d="M0.899816 7.20221C1.13846 7.20221 1.36733 7.10741 1.53608 6.93866C1.70483 6.76991 1.79963 6.54104 1.79963 6.30239V3.07205L5.90279 7.20221C5.98673 7.28929 6.08736 7.35856 6.19868 7.40588C6.31 7.45319 6.42971 7.47758 6.55066 7.47758C6.67161 7.47758 6.79132 7.45319 6.90264 7.40588C7.01395 7.35856 7.11459 7.28929 7.19853 7.20221C7.36612 7.03362 7.46019 6.80556 7.46019 6.56784C7.46019 6.33012 7.36612 6.10206 7.19853 5.93347L3.06837 1.80331H6.29871C6.53736 1.80331 6.76623 1.70851 6.93498 1.53976C7.10373 1.37102 7.19853 1.14214 7.19853 0.903498C7.19853 0.664852 7.10373 0.43598 6.93498 0.267232C6.76623 0.0984834 6.53736 0.00368171 6.29871 0.00368171H0.899816C0.78223 0.0051034 0.666064 0.0295595 0.557886 0.0756669C0.338016 0.166976 0.163294 0.341698 0.0719852 0.561567C0.0258778 0.669745 0.0014217 0.785912 0 0.903498V6.30239C0 6.54104 0.0948017 6.76991 0.26355 6.93866C0.432298 7.10741 0.66117 7.20221 0.899816 7.20221ZM11.9676 10.8015C11.7954 10.6541 11.574 10.577 11.3475 10.5858C11.1211 10.5945 10.9062 10.6884 10.746 10.8487C10.5857 11.0089 10.4919 11.2237 10.4831 11.4502C10.4744 11.6767 10.5514 11.8981 10.6988 12.0702L16.3407 17.7211C16.4247 17.8045 16.5244 17.8704 16.6341 17.9152C16.7437 17.96 16.8611 17.9827 16.9795 17.982C17.0979 17.9827 17.2153 17.96 17.325 17.9152C17.4346 17.8704 17.5343 17.8045 17.6184 17.7211C17.7027 17.6374 17.7697 17.5379 17.8154 17.4282C17.861 17.3186 17.8846 17.201 17.8846 17.0822C17.8846 16.9634 17.861 16.8458 17.8154 16.7361C17.7697 16.6265 17.7027 16.527 17.6184 16.4433L11.9676 10.8015ZM6.29871 16.2004H3.06837L17.7354 1.54237C17.9048 1.37293 18 1.14312 18 0.903498C18 0.663875 17.9048 0.434067 17.7354 0.264628C17.5659 0.0951896 17.3361 0 17.0965 0C16.8569 0 16.6271 0.0951896 16.4576 0.264628L1.79963 14.9316V11.7013C1.79963 11.4626 1.70483 11.2338 1.53608 11.065C1.36733 10.8963 1.13846 10.8015 0.899816 10.8015C0.66117 10.8015 0.432298 10.8963 0.26355 11.065C0.0948017 11.2338 0 11.4626 0 11.7013V17.1002C0.0014217 17.2178 0.0258778 17.3339 0.0719852 17.4421C0.163294 17.662 0.338016 17.8367 0.557886 17.928C0.666064 17.9741 0.78223 17.9986 0.899816 18H6.29871C6.53736 18 6.76623 17.9052 6.93498 17.7365C7.10373 17.5677 7.19853 17.3388 7.19853 17.1002C7.19853 16.8615 7.10373 16.6327 6.93498 16.4639C6.76623 16.2952 6.53736 16.2004 6.29871 16.2004Z" fill="#666"/>
</svg>
