<svg width="20" height="18" viewBox="0 0 20 18" fill="none" xmlns="http://www.w3.org/2000/svg">
<path d="M18.1746 2.01024C17.1145 0.947444 15.7094 0.298776 14.2129 0.181406C12.7164 0.0640361 11.2273 0.485702 10.0146 1.37024C8.74221 0.423874 7.15855 -0.00525253 5.58248 0.169274C4.00641 0.3438 2.555 1.10901 1.52053 2.31082C0.486064 3.51263 -0.0546199 5.06176 0.00735888 6.64625C0.0693377 8.23074 0.729376 9.73291 1.85456 10.8502L8.06456 17.0702C8.58458 17.582 9.28494 17.8688 10.0146 17.8688C10.7442 17.8688 11.4445 17.582 11.9646 17.0702L18.1746 10.8502C19.3421 9.6755 19.9975 8.08651 19.9975 6.43024C19.9975 4.77396 19.3421 3.18497 18.1746 2.01024ZM16.7646 9.47024L10.5546 15.6802C10.4839 15.7516 10.3998 15.8082 10.3071 15.8469C10.2144 15.8855 10.115 15.9054 10.0146 15.9054C9.91413 15.9054 9.8147 15.8855 9.72202 15.8469C9.62933 15.8082 9.54522 15.7516 9.47456 15.6802L3.26456 9.44024C2.48032 8.63858 2.04117 7.5617 2.04117 6.44024C2.04117 5.31877 2.48032 4.24189 3.26456 3.44024C4.06371 2.65122 5.14153 2.20881 6.26456 2.20881C7.38758 2.20881 8.4654 2.65122 9.26456 3.44024C9.35752 3.53396 9.46812 3.60836 9.58998 3.65913C9.71184 3.7099 9.84255 3.73603 9.97456 3.73603C10.1066 3.73603 10.2373 3.7099 10.3591 3.65913C10.481 3.60836 10.5916 3.53396 10.6846 3.44024C11.4837 2.65122 12.5615 2.20881 13.6846 2.20881C14.8076 2.20881 15.8854 2.65122 16.6846 3.44024C17.4796 4.23139 17.9331 5.30243 17.9481 6.42392C17.9631 7.54542 17.5382 8.62817 16.7646 9.44024V9.47024Z" fill="black"/>
</svg>
