<svg width="18" height="18" viewBox="0 0 18 18" fill="none" xmlns="http://www.w3.org/2000/svg">
<path d="M16.1915 5.41506L10.7979 0.686717C10.3035 0.244487 9.66342 0 9.00007 0C8.33673 0 7.69665 0.244487 7.20222 0.686717L1.80868 5.41506C1.52315 5.67042 1.2953 5.98368 1.1403 6.33398C0.985302 6.68428 0.906708 7.06358 0.909753 7.44663V15.3032C0.909753 16.0185 1.19388 16.7044 1.69962 17.2101C2.20536 17.7159 2.8913 18 3.60653 18H14.3936C15.1088 18 15.7948 17.7159 16.3005 17.2101C16.8063 16.7044 17.0904 16.0185 17.0904 15.3032V7.43764C17.0922 7.0561 17.0129 6.67853 16.858 6.32988C16.703 5.98122 16.4759 5.66942 16.1915 5.41506ZM10.7979 16.2022H7.20222V11.7075C7.20222 11.4691 7.29693 11.2405 7.46551 11.0719C7.63409 10.9033 7.86274 10.8086 8.10115 10.8086H9.899C10.1374 10.8086 10.3661 10.9033 10.5346 11.0719C10.7032 11.2405 10.7979 11.4691 10.7979 11.7075V16.2022ZM15.2925 15.3032C15.2925 15.5416 15.1978 15.7703 15.0293 15.9389C14.8607 16.1074 14.632 16.2022 14.3936 16.2022H12.5958V11.7075C12.5958 10.9923 12.3116 10.3064 11.8059 9.80062C11.3002 9.29488 10.6142 9.01076 9.899 9.01076H8.10115C7.38592 9.01076 6.69998 9.29488 6.19424 9.80062C5.6885 10.3064 5.40437 10.9923 5.40437 11.7075V16.2022H3.60653C3.36812 16.2022 3.13947 16.1074 2.97089 15.9389C2.80231 15.7703 2.7076 15.5416 2.7076 15.3032V7.43764C2.70776 7.31 2.7351 7.18387 2.7878 7.06762C2.8405 6.95138 2.91735 6.84768 3.01324 6.76345L8.40678 2.04409C8.57082 1.89998 8.78172 1.8205 9.00007 1.8205C9.21843 1.8205 9.42932 1.89998 9.59336 2.04409L14.9869 6.76345C15.0828 6.84768 15.1596 6.95138 15.2123 7.06762C15.265 7.18387 15.2924 7.31 15.2925 7.43764V15.3032Z" fill="#666"/>
</svg>
