<svg width="18" height="18" viewBox="0 0 18 18" fill="none" xmlns="http://www.w3.org/2000/svg">
<path d="M9 0C10.1819 0 11.3522 0.232792 12.4442 0.685084C13.5361 1.13738 14.5282 1.80031 15.364 2.63604C16.1997 3.47177 16.8626 4.46392 17.3149 5.55585C17.7672 6.64778 18 7.8181 18 9C18 11.3869 17.0518 13.6761 15.364 15.364C13.6761 17.0518 11.3869 18 9 18C7.8181 18 6.64778 17.7672 5.55585 17.3149C4.46392 16.8626 3.47177 16.1997 2.63604 15.364C0.948212 13.6761 0 11.3869 0 9C0 6.61305 0.948212 4.32387 2.63604 2.63604C4.32387 0.948212 6.61305 0 9 0ZM9 1.8C5.328 1.8 2.295 4.545 1.854 8.1H5.517C5.913 6.543 7.326 5.4 9 5.4C10.674 5.4 12.087 6.543 12.483 8.1H16.146C15.705 4.545 12.672 1.8 9 1.8ZM9 16.2C12.672 16.2 15.705 13.455 16.146 9.9H12.483C12.087 11.457 10.674 12.6 9 12.6C7.326 12.6 5.913 11.457 5.517 9.9H1.854C2.295 13.455 5.328 16.2 9 16.2ZM9 7.2C8.52261 7.2 8.06477 7.38964 7.72721 7.72721C7.38964 8.06477 7.2 8.52261 7.2 9C7.2 9.47739 7.38964 9.93523 7.72721 10.2728C8.06477 10.6104 8.52261 10.8 9 10.8C9.47739 10.8 9.93523 10.6104 10.2728 10.2728C10.6104 9.93523 10.8 9.47739 10.8 9C10.8 8.52261 10.6104 8.06477 10.2728 7.72721C9.93523 7.38964 9.47739 7.2 9 7.2Z" fill="black"/>
</svg>
